<svg width="330" height="148" viewBox="0 0 330 148" fill="none" xmlns="http://www.w3.org/2000/svg">
<rect x="133" y="15" width="69" height="3" rx="1.5" fill="#1562AF" fill-opacity="0.14"/>
<rect x="20" y="15" width="106" height="3" rx="1.5" fill="#1562AF" fill-opacity="0.14"/>
<rect x="-79" y="15" width="92" height="3" rx="1.5" fill="#1562AF" fill-opacity="0.14"/>
<rect x="208" y="15" width="77" height="3" rx="1.5" fill="#1562AF" fill-opacity="0.34"/>
<rect x="249" y="26" width="36" height="3" rx="1.5" fill="#1562AF" fill-opacity="0.14"/>
<rect x="105" y="26" width="137" height="3" rx="1.5" fill="#1562AF" fill-opacity="0.14"/>
<rect x="-7" y="26" width="105" height="3" rx="1.5" fill="#1562AF" fill-opacity="0.34"/>
<rect x="43" y="112" width="111" height="3" rx="1.5" fill="#1562AF" fill-opacity="0.14"/>
<rect x="-79" y="112" width="115" height="3" rx="1.5" fill="#1562AF" fill-opacity="0.34"/>
<rect x="161" y="112" width="37" height="3" rx="1.5" fill="#1562AF" fill-opacity="0.14"/>
<rect x="205" y="123" width="19" height="3" rx="1.5" fill="#1562AF" fill-opacity="0.14"/>
<rect x="55" y="123" width="143" height="3" rx="1.5" fill="#1562AF" fill-opacity="0.34"/>
<rect x="16" y="123" width="32" height="3" rx="1.5" fill="#1562AF" fill-opacity="0.14"/>
<rect x="-79" y="123" width="88" height="3" rx="1.5" fill="#1562AF" fill-opacity="0.14"/>
<rect x="122" y="134" width="51" height="3" rx="1.5" fill="#1562AF" fill-opacity="0.14"/>
<rect x="180" y="134" width="62" height="3" rx="1.5" fill="#1562AF" fill-opacity="0.34"/>
<rect x="27" y="134" width="88" height="3" rx="1.5" fill="#1562AF" fill-opacity="0.14"/>
<rect x="-79" y="134" width="99" height="3" rx="1.5" fill="#1562AF" fill-opacity="0.34"/>
<rect y="4" width="97" height="3" rx="1.5" fill="#1562AF" fill-opacity="0.14"/>
<rect y="145" width="55" height="3" rx="1.5" fill="#1562AF" fill-opacity="0.34"/>
</svg>
