<svg width="375" height="171" viewBox="0 0 375 171" fill="none" xmlns="http://www.w3.org/2000/svg">
<g filter="url(#filter0_d_405_892)">
<rect width="61" height="2.07203" rx="1.03602" transform="matrix(-1 0 0 1 187 115.343)" fill="#1562AF" fill-opacity="0.14"/>
<rect width="94" height="2.07203" rx="1.03602" transform="matrix(-1 0 0 1 287 115.343)" fill="#1562AF" fill-opacity="0.34"/>
<rect width="82" height="2.07203" rx="1.03602" transform="matrix(-1 0 0 1 375 115.343)" fill="#1562AF" fill-opacity="0.14"/>
<rect width="68" height="2.07203" rx="1.03602" transform="matrix(-1 0 0 1 120 115.343)" fill="#1562AF" fill-opacity="0.34"/>
<rect width="42" height="2.07203" rx="1.03602" transform="matrix(-1 0 0 1 46 122.941)" fill="#1562AF" fill-opacity="0.34"/>
<rect width="32" height="2.07203" rx="1.03602" transform="matrix(-1 0 0 1 84 122.941)" fill="#1562AF" fill-opacity="0.14"/>
<rect width="122" height="2.07203" rx="1.03602" transform="matrix(-1 0 0 1 212 122.941)" fill="#1562AF" fill-opacity="0.14"/>
<rect width="93" height="2.07203" rx="1.03602" transform="matrix(-1 0 0 1 311 122.941)" fill="#1562AF" fill-opacity="0.14"/>
<rect width="58" height="2.07203" rx="1.03602" transform="matrix(-1 0 0 1 375 122.941)" fill="#1562AF" fill-opacity="0.34"/>
<rect width="118" height="2.07203" rx="1.03602" transform="matrix(-1 0 0 1 375 0)" fill="#1562AF" fill-opacity="0.14"/>
<rect width="128" height="2.07203" rx="1.03602" transform="matrix(-1 0 0 1 375 130.538)" fill="#1562AF" fill-opacity="0.14"/>
<rect width="112" height="2.07203" rx="1.03602" transform="matrix(-1 0 0 1 251 0)" fill="#1562AF" fill-opacity="0.34"/>
<rect width="121" height="2.07203" rx="1.03602" transform="matrix(-1 0 0 1 194 130.538)" fill="#1562AF" fill-opacity="0.14"/>
<rect x="95" width="38" height="2.07203" rx="1.03602" fill="#1562AF" fill-opacity="0.14"/>
<rect x="200" y="130.538" width="41" height="2.07203" rx="1.03602" fill="#1562AF" fill-opacity="0.34"/>
<rect width="92" height="2.07203" rx="1.03602" transform="matrix(-1 0 0 1 275 7.59747)" fill="#1562AF" fill-opacity="0.14"/>
<rect width="99" height="2.07203" rx="1.03602" transform="matrix(-1 0 0 1 267 138.136)" fill="#1562AF" fill-opacity="0.14"/>
<rect width="94" height="2.07203" rx="1.03602" transform="matrix(-1 0 0 1 375 7.59747)" fill="#1562AF" fill-opacity="0.34"/>
<rect width="102" height="2.07203" rx="1.03602" transform="matrix(-1 0 0 1 375 138.136)" fill="#1562AF" fill-opacity="0.34"/>
<rect width="23" height="2.07203" rx="1.03602" transform="matrix(-1 0 0 1 149 7.59747)" fill="#1562AF" fill-opacity="0.34"/>
<rect width="23" height="2.07203" rx="1.03602" transform="matrix(-1 0 0 1 178 7.59747)" fill="#1562AF" fill-opacity="0.14"/>
<rect width="62" height="2.07203" rx="1.03602" transform="matrix(-1 0 0 1 162 138.136)" fill="#1562AF" fill-opacity="0.34"/>
<rect width="68" height="2.07203" rx="1.03602" transform="matrix(-1 0 0 1 120 7.59747)" fill="#1562AF" fill-opacity="0.14"/>
<rect width="79" height="2.07203" rx="1.03602" transform="matrix(-1 0 0 1 123 37.2966)" fill="#1562AF" fill-opacity="0.14"/>
<rect width="79" height="2.07203" rx="1.03602" transform="matrix(-1 0 0 1 123 145.733)" fill="#1562AF" fill-opacity="0.34"/>
<rect width="127" height="2.07203" rx="1.03602" transform="matrix(-1 0 0 1 256 37.2966)" fill="#1562AF" fill-opacity="0.14"/>
<rect width="127" height="2.07203" rx="1.03602" transform="matrix(-1 0 0 1 256 145.733)" fill="#1562AF" fill-opacity="0.14"/>
<rect width="29" height="2.07203" rx="1.03602" transform="matrix(-1 0 0 1 291 37.2966)" fill="#1562AF" fill-opacity="0.34"/>
<rect width="29" height="2.07203" rx="1.03602" transform="matrix(-1 0 0 1 291 145.733)" fill="#1562AF" fill-opacity="0.34"/>
<rect width="78" height="2.07203" rx="1.03602" transform="matrix(-1 0 0 1 375 37.2966)" fill="#1562AF" fill-opacity="0.14"/>
<rect width="78" height="2.07203" rx="1.03602" transform="matrix(-1 0 0 1 375 145.733)" fill="#1562AF" fill-opacity="0.14"/>
<rect width="53" height="2.07203" rx="1.03602" transform="matrix(-1 0 0 1 65 44.894)" fill="#1562AF" fill-opacity="0.34"/>
<rect width="53" height="2.07203" rx="1.03602" transform="matrix(-1 0 0 1 65 153.331)" fill="#1562AF" fill-opacity="0.14"/>
<rect width="126" height="2.07203" rx="1.03602" transform="matrix(-1 0 0 1 197 44.894)" fill="#1562AF" fill-opacity="0.14"/>
<rect width="126" height="2.07203" rx="1.03602" transform="matrix(-1 0 0 1 197 153.331)" fill="#1562AF" fill-opacity="0.14"/>
<rect width="27" height="2.07203" rx="1.03602" transform="matrix(-1 0 0 1 230 44.894)" fill="#1562AF" fill-opacity="0.34"/>
<rect width="45" height="2.07203" rx="1.03602" transform="matrix(-1 0 0 1 281 44.894)" fill="#1562AF" fill-opacity="0.14"/>
<rect width="78" height="2.07203" rx="1.03602" transform="matrix(-1 0 0 1 281 153.331)" fill="#1562AF" fill-opacity="0.34"/>
<rect width="60" height="2.07203" rx="1.03602" transform="matrix(-1 0 0 1 347 44.894)" fill="#1562AF" fill-opacity="0.14"/>
<rect width="88" height="2.07203" rx="1.03602" transform="matrix(-1 0 0 1 375 153.331)" fill="#1562AF" fill-opacity="0.14"/>
<rect width="22" height="2.07203" rx="1.03602" transform="matrix(-1 0 0 1 375 44.894)" fill="#1562AF" fill-opacity="0.14"/>
<rect width="64" height="2.07203" rx="1.03602" transform="matrix(-1 0 0 1 375 52.4915)" fill="#1562AF" fill-opacity="0.34"/>
<rect width="64" height="2.07203" rx="1.03602" transform="matrix(-1 0 0 1 375 160.928)" fill="#1562AF" fill-opacity="0.34"/>
<rect width="86" height="2.07203" rx="1.03602" transform="matrix(-1 0 0 1 305 52.4915)" fill="#1562AF" fill-opacity="0.14"/>
<rect width="154" height="2.07203" rx="1.03602" transform="matrix(-1 0 0 1 305 160.928)" fill="#1562AF" fill-opacity="0.14"/>
</g>
<defs>
<filter id="filter0_d_405_892" x="0" y="0" width="379" height="171" filterUnits="userSpaceOnUse" color-interpolation-filters="sRGB">
<feFlood flood-opacity="0" result="BackgroundImageFix"/>
<feColorMatrix in="SourceAlpha" type="matrix" values="0 0 0 0 0 0 0 0 0 0 0 0 0 0 0 0 0 0 127 0" result="hardAlpha"/>
<feOffset dy="4"/>
<feGaussianBlur stdDeviation="2"/>
<feComposite in2="hardAlpha" operator="out"/>
<feColorMatrix type="matrix" values="0 0 0 0 0 0 0 0 0 0 0 0 0 0 0 0 0 0 0.25 0"/>
<feBlend mode="normal" in2="BackgroundImageFix" result="effect1_dropShadow_405_892"/>
<feBlend mode="normal" in="SourceGraphic" in2="effect1_dropShadow_405_892" result="shape"/>
</filter>
</defs>
</svg>
